<?xml version="1.0" encoding="UTF-8"?>
<svg xmlns="http://www.w3.org/2000/svg" xmlns:xlink="http://www.w3.org/1999/xlink" width="75px" height="75px" viewBox="0 0 75 75" version="1.1">
<g id="surface1">
<path style=" stroke:none;fill-rule:nonzero;fill:rgb(0%,0%,0%);fill-opacity:1;" d="M 72.933594 20.816406 L 66.179688 27.570312 C 65.492188 28.257812 64.378906 28.257812 63.691406 27.570312 L 47.429688 11.308594 C 46.742188 10.621094 46.742188 9.507812 47.429688 8.816406 L 54.183594 2.066406 C 56.921875 -0.675781 61.375 -0.675781 64.132812 2.066406 L 72.933594 10.867188 C 75.6875 13.609375 75.6875 18.0625 72.933594 20.816406 Z M 41.632812 14.617188 L 3.164062 53.085938 L 0.0585938 70.882812 C -0.367188 73.285156 1.726562 75.367188 4.132812 74.957031 L 21.929688 71.835938 L 60.394531 33.367188 C 61.085938 32.679688 61.085938 31.566406 60.394531 30.878906 L 44.136719 14.617188 C 43.433594 13.929688 42.320312 13.929688 41.632812 14.617188 Z M 18.179688 49.789062 C 17.375 48.984375 17.375 47.695312 18.179688 46.890625 L 40.738281 24.332031 C 41.542969 23.523438 42.832031 23.523438 43.636719 24.332031 C 44.445312 25.136719 44.445312 26.425781 43.636719 27.230469 L 21.078125 49.789062 C 20.273438 50.59375 18.984375 50.59375 18.179688 49.789062 Z M 12.890625 62.109375 L 19.921875 62.109375 L 19.921875 67.425781 L 10.472656 69.082031 L 5.917969 64.527344 L 7.574219 55.078125 L 12.890625 55.078125 Z M 12.890625 62.109375 "/>
</g>
</svg>
